<?xml version="1.0" encoding="UTF-8"?><svg id="a" xmlns="http://www.w3.org/2000/svg" viewBox="0 0 1000 1000"><defs><style>.o{fill:#fff;fill-rule:evenodd;}.p{fill:#0e5da9;}</style></defs><rect id="b" class="p" x="13" y="375.15" width="974" height="249.7"/><g id="c"><path id="d" class="o" d="m252.71,463.78c11.87-42.27-22.55-55.15-58.75-55.15s-75.55,11.42-86.32,52.96c-4.01,18.95,1.29,34.98,17.37,42.76,34.58,16.76,71.63,11.66,66.57,35.47-2.47,11.66-18.02,17.49-29.24,17.49-17.49,0-27.69-8.99-23.97-25.51h-48.59c-9.39,47.62,24.05,59.56,64.87,59.56s80.73-17.53,88.59-54.46c10.04-47.37-32.07-50.29-59.88-57.82-12.15-3.4-26.81-7.53-24.09-20.41,1.86-8.74,13.12-16.03,24.29-16.03,8.26,0,14.17,1.94,17.53,5.59,3.6,3.64,4.7,8.74,3.04,15.55h48.59Zm140.54,123.9l7.25-34.01h-85.03l7.89-37.17h78.23l7.21-34.01h-78.23l7.69-36.2h85.03l7.25-34.01h-133.62l-37.29,175.4h133.61Zm27.46,0h43.73l28.55-134.35h.48l30.98,134.35h67.29l37.29-175.4h-43.73l-27.7,130.22-.57.49-31.01-130.7h-68.03l-37.29,175.4Zm237.59,0l18.71-34.26h71.18l4.37,34.26h54.91l-31.95-175.4h-59.28l-106.53,175.4h48.59Zm38.3-68.27l39.32-72.88h.73l6.84,72.88h-46.89Zm177.91,68.27l37.29-175.4h-48.59l-37.29,175.4h48.59Z"/></g><path id="e" class="o" d="m13,497.4h51.04v5.21H13v-5.21Z"/><path id="f" class="o" d="m13,455.17h51.04v5.21H13v-5.21Z"/><path id="g" class="o" d="m13,412.96h51.04v5.21H13v-5.21Z"/><path id="h" class="o" d="m13,539.61h51.04v5.21H13v-5.21Z"/><path id="i" class="o" d="m13,581.83h51.04v5.21H13v-5.21Z"/><path id="j" class="o" d="m935.96,497.4h51.04v5.21h-51.04v-5.21Z"/><path id="k" class="o" d="m935.96,455.17h51.04v5.21h-51.04v-5.21Z"/><path id="l" class="o" d="m935.96,412.96h51.04v5.21h-51.04v-5.21Z"/><path id="m" class="o" d="m935.96,539.61h51.04v5.21h-51.04v-5.21Z"/><path id="n" class="o" d="m935.96,581.83h51.04v5.21h-51.04v-5.21Z"/></svg>